<svg width="601" height="601" viewBox="0 0 601 601" fill="none" xmlns="http://www.w3.org/2000/svg">
<path d="M57.0709 300.464L117.928 300.199L178.785 300.103L300.5 299.923L422.214 300.103L483.072 300.199L543.929 300.464L483.072 300.74L422.214 300.836L300.5 301.017L178.785 300.836L117.928 300.74L57.0709 300.464Z" fill="#EBEBEB"/>
<path d="M57.0709 262.336L117.928 262.072L178.785 261.976L300.5 261.796L422.214 261.976L483.072 262.072L543.929 262.336L483.072 262.613L422.214 262.709L300.5 262.889L178.785 262.709L117.928 262.613L57.0709 262.336Z" fill="#EBEBEB"/>
<path d="M57.0709 224.221L117.928 223.945L178.785 223.848L300.5 223.668L422.214 223.848L483.072 223.945L543.929 224.221L483.072 224.485L422.214 224.582L300.5 224.762L178.785 224.582L117.928 224.485L57.0709 224.221Z" fill="#EBEBEB"/>
<path d="M57.0709 186.094L117.928 185.817L178.785 185.721L300.5 185.541L422.214 185.721L483.072 185.817L543.929 186.094L483.072 186.358L422.214 186.454L300.5 186.646L178.785 186.454L117.928 186.358L57.0709 186.094Z" fill="#EBEBEB"/>
<path d="M57.0709 147.966L117.928 147.702L178.785 147.594L300.5 147.413L422.214 147.594L483.072 147.69L543.929 147.966L483.072 148.231L422.214 148.327L300.5 148.519L178.785 148.327L117.928 148.231L57.0709 147.966Z" fill="#EBEBEB"/>
<path d="M57.0709 109.839L117.928 109.574L178.785 109.478L300.5 109.286L422.214 109.466L483.072 109.574L543.929 109.839L483.072 110.103L422.214 110.211L300.5 110.392L178.785 110.199L117.928 110.103L57.0709 109.839Z" fill="#EBEBEB"/>
<path d="M57.0709 338.627L117.928 338.363L178.785 338.267L300.5 338.074L422.214 338.267L483.072 338.363L543.929 338.627L483.072 338.892L422.214 339L300.5 339.18L178.785 338.988L117.928 338.892L57.0709 338.627Z" fill="#EBEBEB"/>
<path d="M57.0709 376.791L117.928 376.527L178.785 376.418L300.5 376.238L422.214 376.418L483.072 376.514L543.929 376.791L483.072 377.055L422.214 377.152L300.5 377.344L178.785 377.152L117.928 377.055L57.0709 376.791Z" fill="#EBEBEB"/>
<path d="M57.0709 414.942L117.928 414.678L178.785 414.582L300.5 414.401L422.214 414.582L483.072 414.678L543.929 414.942L483.072 415.219L422.214 415.315L300.5 415.495L178.785 415.315L117.928 415.219L57.0709 414.942Z" fill="#EBEBEB"/>
<path d="M57.0709 453.106L117.928 452.841L178.785 452.745L300.5 452.553L422.214 452.745L483.072 452.841L543.929 453.106L483.072 453.382L422.214 453.479L300.5 453.659L178.785 453.479L117.928 453.382L57.0709 453.106Z" fill="#EBEBEB"/>
<path d="M543.917 338.074H57.0709V376.238H543.917V338.074Z" fill="#DBDBDB"/>
<path d="M342.065 68.1173L342.366 112.327L342.474 145.514L342.666 356.417L342.474 422.779L342.366 455.967L342.065 489.142L341.777 455.967L341.668 422.779L341.464 356.417L341.668 145.514L341.777 112.327L342.065 68.1173Z" fill="#EBEBEB"/>
<path d="M300.5 68.1173L300.788 112.327L300.897 145.514L301.101 356.417L300.897 422.779L300.8 455.967L300.5 489.142L300.199 455.967L300.103 422.779L299.899 356.417L300.103 145.514L300.211 112.327L300.5 68.1173Z" fill="#EBEBEB"/>
<path d="M258.935 68.1173L259.223 112.327L259.332 145.514L259.524 356.417L259.332 422.779L259.223 455.967L258.935 489.142L258.634 455.967L258.526 422.779L258.334 356.417L258.526 145.514L258.634 112.327L258.935 68.1173Z" fill="#EBEBEB"/>
<path d="M217.358 68.1173L217.646 112.327L217.754 145.514L217.959 356.417L217.754 422.779L217.658 455.967L217.358 489.142L217.069 455.967L216.961 422.779L216.757 356.417L216.961 145.514L217.069 112.327L217.358 68.1173Z" fill="#EBEBEB"/>
<path d="M466.785 68.1173L467.073 112.327L467.181 145.514L467.386 356.417L467.181 422.779L467.073 455.967L466.785 489.142L466.484 455.967L466.376 422.779L466.184 356.417L466.388 145.514L466.484 112.327L466.785 68.1173Z" fill="#EBEBEB"/>
<path d="M425.207 68.1173L425.508 112.327L425.604 145.514L425.808 356.417L425.604 422.779L425.508 455.967L425.207 489.142L424.919 455.967L424.811 422.779L424.606 356.417L424.811 145.514L424.919 112.327L425.207 68.1173Z" fill="#EBEBEB"/>
<path d="M383.642 68.1173L383.931 112.327L384.039 145.514L384.243 356.417L384.039 422.779L383.931 455.967L383.642 489.142L383.342 455.967L383.246 422.779L383.041 356.417L383.246 145.514L383.354 112.327L383.642 68.1173Z" fill="#EBEBEB"/>
<path d="M508.35 68.1173L508.638 112.327L508.746 145.514L508.951 356.417L508.746 422.779L508.65 455.967L508.35 489.142L508.061 455.967L507.953 422.779L507.749 356.417L507.953 145.514L508.061 112.327L508.35 68.1173Z" fill="#EBEBEB"/>
<path d="M466.785 68.1173L467.073 112.327L467.181 145.514L467.386 356.417L467.181 422.779L467.073 455.967L466.785 489.142L466.484 455.967L466.376 422.779L466.184 356.417L466.388 145.514L466.484 112.327L466.785 68.1173Z" fill="#EBEBEB"/>
<path d="M175.792 68.1173L176.081 112.327L176.189 145.514L176.393 356.417L176.189 422.779L176.081 455.967L175.792 489.142L175.492 455.967L175.384 422.779L175.191 356.417L175.396 145.514L175.492 112.327L175.792 68.1173Z" fill="#EBEBEB"/>
<path d="M134.215 68.1173L134.516 112.327L134.612 145.514L134.816 356.417L134.624 422.779L134.516 455.967L134.215 489.142L133.927 455.967L133.819 422.779L133.614 356.417L133.819 145.514L133.927 112.327L134.215 68.1173Z" fill="#EBEBEB"/>
<path d="M92.6501 68.1173L92.9385 112.327L93.0467 145.514L93.2511 356.417L93.0467 422.779L92.9385 455.967L92.6501 489.142L92.3496 455.967L92.2534 422.779L92.0491 356.417L92.2534 145.514L92.3496 112.327L92.6501 68.1173Z" fill="#EBEBEB"/>
<path d="M63.3694 220.831H258.911L265.197 74.1754H57.0709L63.3694 220.831Z" fill="#EBEBEB"/>
<path d="M156.981 207.357H77.9016L72.745 88.359H156.981V207.357ZM79.0555 206.155H155.779V89.561H74.0432L79.0555 206.155Z" fill="#DBDBDB"/>
<path d="M149.841 167.967H141.632V125.008H149.841V167.967ZM142.834 166.765H148.639V126.21H142.834V166.765Z" fill="#DBDBDB"/>
<path d="M244.367 207.357H165.287V88.359H249.523L244.367 207.357ZM166.489 206.155H243.213L248.261 89.561H166.525L166.489 206.155Z" fill="#DBDBDB"/>
<path d="M180.637 167.967H172.427V125.008H180.637V167.967ZM173.629 166.765H179.435V126.21H173.629V166.765Z" fill="#DBDBDB"/>
<path d="M300.5 537.582C433.057 537.582 540.515 530.452 540.515 521.656C540.515 512.86 433.057 505.729 300.5 505.729C167.943 505.729 60.4846 512.86 60.4846 521.656C60.4846 530.452 167.943 537.582 300.5 537.582Z" fill="#EBEBEB"/>
<path d="M299.635 486.281L297.531 485.139L303.914 473.384H402.838L409.233 485.139L407.117 486.281L401.408 475.788H305.344L299.635 486.281Z" fill="#263238"/>
<path d="M317.076 486.137L314.816 485.295L319.239 473.384H387.513L391.936 485.295L389.688 486.137L385.842 475.788H320.91L317.076 486.137Z" fill="#263238"/>
<path d="M523.086 486.281L517.377 475.788H421.313L415.604 486.281L413.5 485.139L419.883 473.384H518.807L525.202 485.139L523.086 486.281Z" fill="#263238"/>
<path d="M505.657 486.137L501.811 475.788H436.879L433.045 486.137L430.785 485.295L435.208 473.384H503.482L507.905 485.295L505.657 486.137Z" fill="#263238"/>
<path d="M530.647 483.132H292.687V489.334H530.647V483.132Z" fill="#455A64"/>
<path d="M53.1404 489.142L114.983 488.853L176.814 488.745L300.5 488.541L424.174 488.745L486.017 488.853L547.86 489.142L486.017 489.442L424.174 489.539L300.5 489.743L176.814 489.539L114.983 489.43L53.1404 489.142Z" fill="#263238"/>
<path d="M511.066 148.086H318.746V162.883H511.066V148.086Z" fill="white"/>
<path d="M417.755 189.64H412.046V261.808H417.755V189.64Z" fill="#C7C7C7"/>
<path d="M430.316 258.658H399.449L397.862 301.798H431.939L430.316 258.658ZM408.38 296.738H405.17V264.825H408.38V296.738ZM416.457 296.738H413.26V264.825H416.457V296.738ZM424.534 296.738H421.337V264.825H424.534V296.738Z" fill="#C7C7C7"/>
<path d="M421.073 196.743H409.089L407.887 152.041H422.275L421.073 196.743Z" fill="#263238"/>
<path d="M415.087 159.818C416.162 159.818 417.034 158.946 417.034 157.871C417.034 156.795 416.162 155.923 415.087 155.923C414.011 155.923 413.139 156.795 413.139 157.871C413.139 158.946 414.011 159.818 415.087 159.818Z" fill="white"/>
<path d="M478.18 189.64H472.47V247.72H478.18V189.64Z" fill="#C7C7C7"/>
<path d="M491.678 264.512C491.678 276.628 483.781 287.771 475.331 287.771C466.881 287.771 458.972 276.628 458.972 264.512C458.972 252.396 468.648 246.41 475.331 246.41C482.014 246.41 491.678 252.42 491.678 264.512Z" fill="#C7C7C7"/>
<path d="M481.497 196.743H469.513L468.311 152.041H482.699L481.497 196.743Z" fill="#263238"/>
<path d="M475.511 159.818C476.587 159.818 477.458 158.946 477.458 157.871C477.458 156.795 476.587 155.923 475.511 155.923C474.436 155.923 473.564 156.795 473.564 157.871C473.564 158.946 474.436 159.818 475.511 159.818Z" fill="white"/>
<path d="M318.638 214.413V285.331H362.006V189.459H353.015V214.413H318.638ZM324.768 224.269C324.766 223.758 324.916 223.257 325.198 222.83C325.481 222.404 325.883 222.07 326.355 221.873C326.827 221.676 327.347 221.623 327.849 221.721C328.352 221.819 328.813 222.065 329.176 222.426C329.538 222.786 329.786 223.247 329.886 223.749C329.987 224.25 329.937 224.77 329.741 225.243C329.546 225.716 329.215 226.121 328.79 226.405C328.364 226.69 327.864 226.841 327.353 226.841C326.669 226.841 326.014 226.571 325.53 226.089C325.045 225.607 324.772 224.952 324.768 224.269Z" fill="#C7C7C7"/>
<path d="M351.525 196.743H363.509L364.711 152.041H350.323L351.525 196.743Z" fill="#263238"/>
<path d="M357.523 159.818C358.598 159.818 359.47 158.946 359.47 157.871C359.47 156.795 358.598 155.923 357.523 155.923C356.447 155.923 355.576 156.795 355.576 157.871C355.576 158.946 356.447 159.818 357.523 159.818Z" fill="white"/>
<path d="M380.625 88.359V148.086H473.997V88.359H380.625Z" fill="white"/>
<path opacity="0.2" d="M380.625 88.359V148.086H473.997V88.359H380.625Z" fill="black"/>
<path d="M498.746 110.247C494.094 110.247 489.791 114.226 485.44 114.226H473.997V122.219H485.44C489.791 122.219 494.094 126.222 498.746 126.222C504.251 126.222 508.362 123.145 508.362 118.229C508.362 113.313 504.251 110.247 498.746 110.247ZM500.008 121.222C499.413 121.224 498.83 121.05 498.334 120.72C497.838 120.391 497.451 119.922 497.222 119.372C496.993 118.823 496.933 118.217 497.048 117.633C497.164 117.049 497.45 116.513 497.871 116.092C498.292 115.671 498.829 115.384 499.413 115.269C499.997 115.153 500.602 115.214 501.151 115.443C501.701 115.672 502.17 116.059 502.5 116.555C502.829 117.051 503.003 117.633 503.001 118.229C502.995 119.016 502.681 119.771 502.126 120.33C501.571 120.889 500.82 121.209 500.032 121.222H500.008Z" fill="white"/>
<g opacity="0.2">
<path d="M498.746 110.247C494.094 110.247 489.791 114.226 485.44 114.226H473.997V122.219H485.44C489.791 122.219 494.094 126.222 498.746 126.222C504.251 126.222 508.362 123.145 508.362 118.229C508.362 113.313 504.251 110.247 498.746 110.247ZM500.008 121.222C499.413 121.224 498.83 121.05 498.334 120.72C497.838 120.391 497.451 119.922 497.222 119.372C496.993 118.823 496.933 118.217 497.048 117.633C497.164 117.049 497.45 116.513 497.871 116.092C498.292 115.671 498.829 115.384 499.413 115.269C499.997 115.153 500.602 115.214 501.151 115.443C501.701 115.672 502.17 116.059 502.5 116.555C502.829 117.051 503.003 117.633 503.001 118.229C502.995 119.016 502.681 119.771 502.126 120.33C501.571 120.889 500.82 121.209 500.032 121.222H500.008Z" fill="black"/>
</g>
<path d="M405.807 119.094C405.807 119.094 393.511 142.088 391.119 145.214C388.727 148.339 382.921 148.086 379.327 148.086H349.95C346.344 148.086 340.551 148.351 338.159 145.214C335.767 142.076 323.47 119.094 323.47 119.094H405.807Z" fill="#455A64"/>
<path d="M174.927 243.573C166.513 235.496 138.218 236.073 126.09 249.583C109.37 268.154 131.367 304.755 157.943 295.62C184.519 286.485 181.382 249.8 174.927 243.573Z" fill="#263238"/>
<path d="M127.845 285.8C123.121 278.96 119.587 271.219 118.746 263.346C118.228 259.541 118.896 255.668 120.66 252.256C122.424 248.845 125.197 246.06 128.602 244.282C132.066 242.32 135.777 240.828 139.636 239.847C143.488 238.745 147.452 238.084 151.452 237.876C159.654 237.403 167.81 239.387 174.879 243.573C168.701 237.852 160.034 234.859 151.44 234.703C147.121 234.612 142.808 235.093 138.615 236.133C134.371 237.116 130.288 238.695 126.486 240.821C122.51 243.073 119.289 246.452 117.231 250.533C115.327 254.664 114.756 259.285 115.596 263.755C117.171 272.433 121.943 279.922 127.845 285.8Z" fill="#263238"/>
<path d="M207.826 298.493C228.176 322.929 245.016 354.085 254.043 361.634C258.754 365.576 327.365 371.646 335.142 373.185C347.005 375.517 330.225 436.29 322.232 434.042C317.015 432.588 238.188 421.686 223.668 405.266C212.514 392.633 194.892 338.183 190.204 314.263C185.012 287.663 199.712 288.744 207.826 298.493Z" fill="#774442"/>
<path d="M351.621 436.939C338.015 436.789 324.48 434.969 311.318 431.518C304.106 429.463 307.712 372.836 315.116 370.721C337.954 364.146 369.338 368.834 379.82 377.212C390.301 385.59 365.24 436.927 351.621 436.939Z" fill="#774442"/>
<path d="M520.718 339.252C507.929 346.861 492.015 350.227 477.807 354.241C470.018 356.429 462.193 358.48 454.332 360.396C450.726 361.285 447.12 362.114 443.514 362.932C441.326 363.437 437.913 364.843 435.605 364.206C435.343 364.145 435.106 364.005 434.925 363.805C434.745 363.605 434.63 363.355 434.595 363.088C434.583 362.936 434.583 362.783 434.595 362.631C434.511 361.297 471.857 350.359 482.675 336.668C488.144 329.709 492.94 318.253 487.675 309.864C484.526 304.863 478.156 304.082 472.879 305.56C467.374 307.111 461.556 313.421 466.749 315.97C467.253 315.056 468.948 315.441 468.6 316.583C467.542 319.299 461.7 320.934 458.623 317.34C453.683 311.606 457.217 302.435 461.159 297.988C472.182 285.487 498.974 285.679 507.917 302.219C513.134 298.324 520.033 299.995 522.582 305.981C527.486 301.474 534.602 306.606 535.804 312.869C538.015 323.927 529.613 333.988 520.718 339.252Z" fill="white"/>
<path d="M454.825 298.336C453.623 296.918 442.709 299.466 445.317 304.599C447.925 309.731 456.64 300.392 454.825 298.336Z" fill="white"/>
<path d="M448.755 311.943C447.3 311.426 442.384 317.797 445.714 319.672C449.043 321.547 449.969 312.376 448.755 311.943Z" fill="white"/>
<path d="M509.263 298.096C510.67 297.471 509.84 289.454 506.138 290.391C502.436 291.329 508.073 298.589 509.263 298.096Z" fill="white"/>
<path d="M445.257 308.914C444.692 308.169 441.843 309.106 442.925 310.729C444.007 312.352 445.942 309.828 445.257 308.914Z" fill="white"/>
<path d="M507.893 287.47C508.795 287.242 509.095 284.261 507.136 284.622C505.177 284.982 506.847 287.735 507.893 287.47Z" fill="white"/>
<path d="M410.255 375.649L305.452 410.074L301.642 396.696L407.538 366.069L410.255 375.649Z" fill="#A6A6A6"/>
<path d="M532.017 330.646C532.017 330.646 534.782 358.785 524.973 361.586L472.59 376.49L420.207 391.395C410.399 394.184 397.934 368.81 397.934 368.81L532.017 330.646Z" fill="#455A64"/>
<path d="M321.355 369.338C321.355 369.338 377.428 346.633 376.226 370.865C375.865 378.077 365.793 407.214 359.903 405.302C352.294 402.838 354.229 389.893 356.73 381.947C356.73 381.947 340.358 391.888 330.033 382.548C326.09 378.933 323.107 374.393 321.355 369.338Z" fill="#774442"/>
<path d="M376.226 368.846C376.42 371.688 376.198 374.543 375.565 377.32C375.001 380.11 374.254 382.861 373.329 385.554C371.548 390.98 369.295 396.241 366.598 401.276C365.874 402.598 364.967 403.812 363.906 404.882C363.281 405.51 362.52 405.987 361.682 406.276C361.232 406.446 360.756 406.536 360.275 406.54C359.801 406.543 359.33 406.466 358.881 406.312C357.264 405.757 355.896 404.645 355.023 403.175C354.256 401.812 353.727 400.328 353.46 398.788C353.023 395.861 353.088 392.882 353.652 389.977C354.146 387.123 354.853 384.311 355.768 381.563L357.234 382.693C355.319 383.759 353.307 384.64 351.224 385.325C349.167 386.021 347.045 386.508 344.89 386.78C342.736 387.024 340.557 386.955 338.423 386.575C336.291 386.198 334.25 385.414 332.413 384.267C334.313 385.137 336.344 385.685 338.423 385.89C340.493 386.057 342.576 385.94 344.613 385.542C346.671 385.174 348.685 384.594 350.623 383.811C352.533 383.053 354.368 382.12 356.105 381.022L358.232 379.652L357.571 382.152C356.8 384.809 356.209 387.516 355.804 390.253C355.338 392.915 355.31 395.636 355.72 398.307C356.165 400.807 357.427 403.355 359.506 404.004C361.285 404.737 363.196 402.297 364.555 400.026C365.965 397.63 367.249 395.163 368.401 392.633C369.603 390.097 370.805 387.549 371.815 384.941C373.822 379.832 375.901 374.495 376.226 368.846Z" fill="#263238"/>
<path d="M361.105 367.608C355.155 371.214 362.812 376.166 362.812 376.166C362.812 376.166 350.071 371.694 345.371 377.789C340.851 383.678 350.323 389.34 350.996 389.748C350.311 389.52 338.495 385.722 334.408 392.333C330.153 399.208 340.635 403.247 341.32 403.511C340.611 403.511 331.259 403.427 329.3 409.161C325.922 419.005 349.83 419.835 355.323 426.241C355.323 426.241 350.864 436.614 350.648 436.975C350.648 436.975 368.052 438.393 376.262 430.52C377.486 429.399 378.286 427.89 378.527 426.248C378.768 424.606 378.435 422.931 377.584 421.505C377.584 421.505 384.868 422.707 388.246 417.611C389.977 414.99 387.321 409.882 387.321 409.882C387.321 409.882 393.198 410.615 395.927 405.891C398.115 402.117 395.109 397.586 395.109 397.586C395.109 397.586 401.119 395.674 402.057 391.095C404.052 381.875 373.822 359.891 361.105 367.608Z" fill="#774442"/>
<path d="M394.725 396.792C394.742 396.811 394.767 396.823 394.793 396.824C394.819 396.825 394.844 396.816 394.863 396.798C394.882 396.781 394.894 396.756 394.895 396.73C394.896 396.704 394.887 396.679 394.869 396.66C386.707 387.044 374.784 378.907 362.415 375.853C362.006 375.757 361.67 376.37 362.103 376.563C374.243 382.14 384.556 388.054 394.725 396.792Z" fill="#263238"/>
<path d="M387.501 409.882C387.621 409.978 387.777 409.798 387.669 409.678C379.255 399.773 365.516 391.023 350.864 389.184C350.371 389.123 349.854 389.568 350.431 389.676C360.071 391.684 378.39 402.021 387.501 409.882Z" fill="#263238"/>
<path d="M340.25 403.74C354.229 406.036 366.057 412.586 377.248 421.073C377.392 421.181 377.536 420.964 377.44 420.832C373.089 415.195 365.42 410.543 359.11 407.418C353.324 404.409 346.85 402.97 340.334 403.247C340.07 403.259 339.95 403.68 340.25 403.74Z" fill="#263238"/>
<path d="M362.812 376.226C360.289 375.594 357.714 375.191 355.119 375.024C352.607 374.762 350.072 375.177 347.775 376.226C346.746 376.757 345.953 377.653 345.551 378.738C345.156 379.843 345.048 381.03 345.238 382.188C345.529 383.319 346.053 384.376 346.778 385.291C347.503 386.206 348.411 386.959 349.445 387.501L354.386 390.374L348.748 389.4C346.248 388.942 343.69 388.897 341.176 389.268C340.005 389.378 338.872 389.733 337.847 390.308C336.822 390.884 335.929 391.668 335.226 392.609C334.586 393.497 334.269 394.576 334.325 395.669C334.382 396.762 334.81 397.803 335.538 398.619C337.215 400.409 339.321 401.741 341.656 402.49L348.015 404.773L341.284 404.701C339.409 404.674 337.539 404.888 335.719 405.338C333.978 405.701 332.381 406.566 331.127 407.827C330.59 408.421 330.23 409.153 330.085 409.94C329.941 410.728 330.019 411.54 330.31 412.286C331.227 413.826 332.56 415.076 334.156 415.892C337.591 417.779 341.173 419.387 344.866 420.7C346.705 421.433 348.556 422.166 350.359 422.984C352.232 423.7 353.929 424.811 355.335 426.241C353.805 424.996 352.045 424.065 350.155 423.501C348.303 422.828 346.416 422.239 344.529 421.65C340.671 420.563 336.924 419.114 333.339 417.322C331.375 416.39 329.729 414.902 328.603 413.043C328.102 411.965 327.927 410.765 328.098 409.589C328.268 408.412 328.778 407.311 329.564 406.42C331.073 404.809 333.027 403.684 335.178 403.187C337.198 402.654 339.279 402.383 341.368 402.382L340.995 404.593C338.24 403.743 335.755 402.189 333.783 400.086C332.715 398.885 332.095 397.352 332.028 395.746C332.027 394.171 332.495 392.631 333.375 391.323C334.259 390.123 335.389 389.124 336.688 388.393C337.987 387.662 339.426 387.214 340.911 387.08C343.684 386.714 346.498 386.808 349.241 387.357L348.544 389.244C347.29 388.522 346.21 387.535 345.38 386.351C344.549 385.168 343.988 383.816 343.736 382.392C343.56 380.955 343.763 379.496 344.325 378.161C344.909 376.799 345.968 375.697 347.306 375.06C349.842 374.064 352.607 373.798 355.287 374.291C357.86 374.65 360.385 375.299 362.812 376.226Z" fill="#263238"/>
<path d="M309.227 365.636L299.418 431.855C299.418 431.855 228.993 419.835 217.49 406.613C205.987 393.391 194.279 340.839 188.642 314.359C183.005 287.879 197.705 279.585 213.956 301.594C230.207 323.602 248.706 357.138 253.009 359.11C257.312 361.081 309.227 365.636 309.227 365.636Z" fill="white"/>
<path opacity="0.1" d="M280.931 428.297C259.223 423.765 225.183 415.471 217.49 406.661C205.975 393.439 194.291 340.887 188.642 314.419C185.781 300.921 188.197 292.146 193.45 289.718C205.65 308.601 255.557 385.926 280.931 428.297Z" fill="black"/>
<path d="M317.484 365.023C317.316 364.663 297.327 361.189 297.327 361.189C297.327 361.189 279.297 393.054 279.297 396.876C279.297 400.699 278.9 429.727 279.201 430.088C279.501 430.448 303.517 436.747 304.01 436.098C304.503 435.449 306.125 404.148 306.209 401.756C306.294 399.364 317.484 365.023 317.484 365.023Z" fill="white"/>
<path opacity="0.2" d="M317.484 365.023C317.316 364.663 297.327 361.189 297.327 361.189C297.327 361.189 279.297 393.054 279.297 396.876C279.297 400.699 278.9 429.727 279.201 430.088C279.501 430.448 303.517 436.747 304.01 436.098C304.503 435.449 306.125 404.148 306.209 401.756C306.294 399.364 317.484 365.023 317.484 365.023Z" fill="black"/>
<path d="M242.383 489.334L227.959 410.495C227.959 410.495 242.383 397.273 240.893 373.666C240.099 360.949 217.045 315.429 204.689 299.49C193.089 284.549 168.028 285.355 152.57 304.106C102.651 364.663 87.2291 445.028 80.8104 489.334H242.383Z" fill="white"/>
<path d="M168.965 302.832C173.022 307.553 177.911 311.488 183.389 314.443C188.789 317.458 194.8 319.217 200.974 319.588C204.046 319.721 207.123 319.503 210.146 318.939L212.393 318.446H212.634C212.74 318.452 212.844 318.485 212.934 318.542C212.993 318.578 213.045 318.622 213.09 318.674L213.163 318.77C213.232 318.863 213.296 318.959 213.355 319.059L213.655 319.588C213.848 319.948 214.016 320.297 214.184 320.658C214.845 322.088 215.446 323.53 216.023 324.973C218.299 330.781 220.261 336.708 221.901 342.726C223.57 348.738 224.887 354.843 225.844 361.009C226.809 367.186 227.211 373.438 227.046 379.688C226.951 385.979 225.826 392.211 223.716 398.139C221.588 404.113 217.782 409.346 212.754 413.212L212.97 412.731L217.273 450.93L221.408 489.154L216.6 451.014L211.949 412.851V412.55L212.189 412.37C217.062 408.611 220.744 403.522 222.791 397.718C224.843 391.904 225.927 385.793 226 379.628C226.276 367.271 224.125 354.939 220.916 342.991C219.3 337.01 217.366 331.12 215.122 325.345C214.557 323.903 213.92 322.473 213.319 321.078C213.151 320.73 212.994 320.381 212.814 320.045C212.73 319.888 212.646 319.72 212.55 319.564C212.453 319.407 212.453 319.42 212.429 319.371C212.503 319.414 212.585 319.439 212.67 319.444L210.362 319.936C207.261 320.485 204.105 320.662 200.962 320.465C194.659 320.01 188.544 318.114 183.089 314.924C177.679 311.794 172.891 307.695 168.965 302.832Z" fill="#263238"/>
<path d="M183.906 351.369C183.906 352.082 183.694 352.779 183.298 353.372C182.902 353.965 182.339 354.427 181.68 354.7C181.021 354.973 180.296 355.045 179.596 354.905C178.897 354.766 178.254 354.423 177.75 353.919C177.246 353.414 176.902 352.772 176.763 352.072C176.624 351.373 176.696 350.648 176.968 349.989C177.241 349.33 177.704 348.767 178.297 348.37C178.89 347.974 179.587 347.763 180.3 347.763C181.256 347.763 182.174 348.143 182.85 348.819C183.526 349.495 183.906 350.412 183.906 351.369Z" fill="#263238"/>
<path d="M217.911 353.244C217.911 353.957 217.699 354.654 217.303 355.247C216.907 355.84 216.343 356.302 215.685 356.575C215.026 356.848 214.301 356.92 213.601 356.78C212.902 356.641 212.259 356.298 211.755 355.794C211.25 355.289 210.907 354.647 210.768 353.947C210.629 353.248 210.7 352.523 210.973 351.864C211.246 351.205 211.708 350.642 212.301 350.245C212.894 349.849 213.591 349.638 214.305 349.638C215.261 349.638 216.178 350.018 216.854 350.694C217.531 351.37 217.911 352.287 217.911 353.244Z" fill="#263238"/>
<path d="M179.098 378.317C179.098 379.031 178.887 379.728 178.49 380.321C178.094 380.914 177.531 381.376 176.872 381.649C176.213 381.922 175.488 381.993 174.788 381.854C174.089 381.715 173.446 381.372 172.942 380.867C172.438 380.363 172.094 379.72 171.955 379.021C171.816 378.321 171.888 377.596 172.16 376.937C172.433 376.279 172.896 375.715 173.489 375.319C174.082 374.923 174.779 374.711 175.492 374.711C176.448 374.711 177.366 375.091 178.042 375.768C178.718 376.444 179.098 377.361 179.098 378.317Z" fill="#263238"/>
<path d="M167.787 410.495C167.787 411.208 167.576 411.905 167.179 412.498C166.783 413.091 166.22 413.554 165.561 413.827C164.902 414.099 164.177 414.171 163.478 414.032C162.778 413.893 162.136 413.549 161.631 413.045C161.127 412.541 160.784 411.898 160.644 411.199C160.505 410.499 160.577 409.774 160.85 409.115C161.123 408.456 161.585 407.893 162.178 407.497C162.771 407.101 163.468 406.889 164.181 406.889C165.138 406.889 166.055 407.269 166.731 407.945C167.407 408.621 167.787 409.539 167.787 410.495Z" fill="#263238"/>
<path d="M166.633 442.18C166.633 442.893 166.422 443.59 166.026 444.183C165.629 444.776 165.066 445.238 164.407 445.511C163.748 445.784 163.023 445.856 162.324 445.716C161.624 445.577 160.982 445.234 160.477 444.73C159.973 444.225 159.63 443.583 159.491 442.883C159.351 442.184 159.423 441.459 159.696 440.8C159.969 440.141 160.431 439.578 161.024 439.181C161.617 438.785 162.314 438.574 163.027 438.574C163.984 438.574 164.901 438.954 165.577 439.63C166.253 440.306 166.633 441.223 166.633 442.18Z" fill="#263238"/>
<path d="M215.807 381.034C215.807 381.747 215.596 382.444 215.199 383.037C214.803 383.63 214.24 384.093 213.581 384.365C212.922 384.638 212.197 384.71 211.498 384.571C210.798 384.432 210.156 384.088 209.651 383.584C209.147 383.079 208.804 382.437 208.664 381.737C208.525 381.038 208.597 380.313 208.87 379.654C209.143 378.995 209.605 378.432 210.198 378.036C210.791 377.639 211.488 377.428 212.201 377.428C213.157 377.428 214.075 377.808 214.751 378.484C215.427 379.16 215.807 380.078 215.807 381.034Z" fill="#263238"/>
<path d="M204.268 441.507C204.268 442.22 204.056 442.917 203.66 443.51C203.264 444.103 202.701 444.565 202.042 444.838C201.383 445.111 200.658 445.182 199.958 445.043C199.259 444.904 198.616 444.561 198.112 444.056C197.608 443.552 197.264 442.91 197.125 442.21C196.986 441.511 197.057 440.786 197.33 440.127C197.603 439.468 198.066 438.905 198.659 438.508C199.252 438.112 199.949 437.901 200.662 437.901C201.618 437.901 202.535 438.281 203.212 438.957C203.888 439.633 204.268 440.55 204.268 441.507Z" fill="#263238"/>
<path d="M164.986 477.206C166.958 477.206 168.556 475.608 168.556 473.636C168.556 471.664 166.958 470.066 164.986 470.066C163.015 470.066 161.417 471.664 161.417 473.636C161.417 475.608 163.015 477.206 164.986 477.206Z" fill="#263238"/>
<path d="M206.191 472.963C206.191 473.676 205.98 474.373 205.583 474.966C205.187 475.559 204.624 476.022 203.965 476.294C203.306 476.567 202.581 476.639 201.882 476.5C201.182 476.361 200.539 476.017 200.035 475.513C199.531 475.008 199.187 474.366 199.048 473.666C198.909 472.967 198.981 472.242 199.253 471.583C199.526 470.924 199.989 470.361 200.582 469.965C201.175 469.568 201.872 469.357 202.585 469.357C203.541 469.357 204.459 469.737 205.135 470.413C205.811 471.089 206.191 472.007 206.191 472.963Z" fill="#263238"/>
<path d="M205.109 411.709C205.109 412.422 204.898 413.119 204.502 413.712C204.105 414.305 203.542 414.768 202.883 415.041C202.224 415.313 201.499 415.385 200.8 415.246C200.1 415.107 199.458 414.763 198.953 414.259C198.449 413.755 198.106 413.112 197.967 412.413C197.827 411.713 197.899 410.988 198.172 410.329C198.445 409.67 198.907 409.107 199.5 408.711C200.093 408.315 200.79 408.103 201.503 408.103C202.46 408.103 203.377 408.483 204.053 409.159C204.729 409.835 205.109 410.753 205.109 411.709Z" fill="#263238"/>
<path d="M207.081 288.865C207.081 288.865 211.889 310.741 207.886 311.775C195.722 314.984 179.158 300.272 177.956 297.711C177.656 297.05 175.805 279.765 174.35 266.315C173.437 257.673 172.727 250.617 172.727 250.617L207.285 263.454L207.057 287.17L207.081 288.865Z" fill="#774442"/>
<path d="M207.333 263.454L207.105 287.17C200.494 286.186 194.165 283.82 188.529 280.227C182.894 276.634 178.079 271.894 174.398 266.315C173.485 257.673 172.776 250.617 172.776 250.617L177.103 252.059L207.333 263.454Z" fill="#263238"/>
<path d="M235.52 228.152C240.328 269.512 216.096 277.049 207.177 278.071C199.075 279.008 171.393 281.148 162.342 240.508C153.291 199.869 171.009 184.555 189.423 181.454C207.838 178.353 230.784 186.791 235.52 228.152Z" fill="#774442"/>
<path d="M228.043 224.942C227.09 224.835 226.144 224.678 225.207 224.474C224.187 224.448 223.203 224.089 222.406 223.452C222.196 223.2 222.074 222.886 222.058 222.558C222.043 222.231 222.136 221.907 222.322 221.637C222.778 221.162 223.353 220.817 223.987 220.638C224.62 220.458 225.29 220.45 225.928 220.615C227.259 220.751 228.493 221.376 229.39 222.37C229.587 222.609 229.71 222.901 229.742 223.209C229.774 223.518 229.715 223.829 229.571 224.103C229.427 224.378 229.206 224.604 228.934 224.753C228.662 224.903 228.352 224.968 228.043 224.942Z" fill="#263238"/>
<path d="M199.664 226.769C200.592 226.534 201.507 226.249 202.405 225.916C203.417 225.75 204.346 225.256 205.049 224.51C205.221 224.231 205.297 223.903 205.264 223.578C205.232 223.252 205.093 222.946 204.869 222.707C204.356 222.303 203.746 222.042 203.1 221.952C202.453 221.861 201.795 221.943 201.191 222.19C199.888 222.505 198.748 223.293 197.993 224.401C197.837 224.665 197.76 224.968 197.771 225.274C197.783 225.581 197.884 225.877 198.06 226.127C198.237 226.378 198.483 226.572 198.767 226.686C199.052 226.8 199.363 226.829 199.664 226.769Z" fill="#263238"/>
<path d="M206.407 234.546C206.407 234.438 206.191 234.69 206.203 234.811C206.492 237.623 206.335 240.905 203.799 242.023C203.715 242.023 203.739 242.203 203.799 242.179C206.972 241.53 207.129 237.167 206.407 234.546Z" fill="#263238"/>
<path d="M203.679 231.758C199.099 231.758 199.376 240.881 203.607 240.905C207.838 240.929 207.501 231.794 203.679 231.758Z" fill="#263238"/>
<path d="M201.936 232.298C201.155 232.839 200.397 233.777 199.448 233.897C198.498 234.017 197.465 233.116 196.707 232.214C196.623 232.118 196.551 232.214 196.551 232.323C196.551 234.077 197.308 235.856 199.195 236.061C201.083 236.265 202.092 234.654 202.477 232.887C202.501 232.551 202.212 232.082 201.936 232.298Z" fill="#263238"/>
<path d="M222.154 233.356C222.154 233.248 222.382 233.488 222.382 233.609C222.382 236.445 222.791 239.691 225.375 240.58C225.459 240.58 225.459 240.749 225.375 240.737C222.226 240.4 221.673 236.037 222.154 233.356Z" fill="#263238"/>
<path d="M224.618 230.339C229.173 229.894 229.726 239.03 225.507 239.438C221.288 239.847 220.807 230.712 224.618 230.339Z" fill="#263238"/>
<path d="M226.565 230.784C227.31 231.217 228.079 232.058 228.969 232.058C229.858 232.058 230.652 231.024 231.229 230.039C231.289 229.943 231.373 230.039 231.373 230.135C231.529 231.878 231.072 233.741 229.414 234.174C227.755 234.606 226.685 233.14 226.156 231.421C226.036 231.157 226.252 230.652 226.565 230.784Z" fill="#263238"/>
<path d="M206.48 256.879C207.153 257.553 207.814 258.478 208.884 258.574C209.936 258.571 210.977 258.345 211.937 257.913C211.956 257.903 211.978 257.9 212 257.904C212.021 257.909 212.041 257.92 212.055 257.937C212.069 257.954 212.076 257.975 212.077 257.997C212.077 258.019 212.07 258.04 212.057 258.057C211.645 258.607 211.093 259.034 210.458 259.294C209.823 259.555 209.129 259.638 208.451 259.536C207.875 259.379 207.359 259.054 206.969 258.602C206.579 258.15 206.333 257.592 206.263 257C206.167 256.831 206.383 256.783 206.48 256.879Z" fill="#263238"/>
<path d="M217.899 246.146C217.899 246.146 218.656 250.353 218.74 252.348C218.74 252.528 218.271 252.636 217.598 252.709C217.598 252.709 217.598 252.709 217.514 252.709C215.815 253.089 214.044 252.996 212.395 252.439C210.746 251.881 209.281 250.881 208.162 249.547C208.136 249.509 208.124 249.462 208.128 249.415C208.132 249.369 208.152 249.325 208.184 249.291C208.216 249.258 208.259 249.236 208.306 249.23C208.352 249.224 208.399 249.234 208.439 249.259C211.059 250.891 214.137 251.633 217.213 251.374C217.322 250.821 215.663 244.222 216.011 244.162C217.568 244.239 219.108 244.522 220.591 245.004C219.257 236.193 216.528 227.671 215.338 218.884C215.336 218.823 215.355 218.762 215.392 218.712C215.429 218.663 215.481 218.627 215.54 218.61C215.6 218.593 215.663 218.597 215.72 218.621C215.777 218.644 215.825 218.686 215.855 218.74C219.341 227.467 221.096 237.563 222.707 246.626C222.887 247.78 218.764 246.41 217.899 246.146Z" fill="#263238"/>
<path d="M216.552 251.831C215.623 253.393 214.306 254.688 212.73 255.593C211.856 256.054 210.861 256.235 209.881 256.11C207.73 255.81 207.477 253.91 207.645 252.24C207.749 251.348 207.959 250.473 208.271 249.631C210.727 251.227 213.628 251.998 216.552 251.831Z" fill="#263238"/>
<path d="M212.754 255.593C211.88 256.054 210.885 256.235 209.905 256.11C207.754 255.81 207.501 253.91 207.67 252.24C209.893 252.204 212.285 253.442 212.754 255.593Z" fill="#FF9CBD"/>
<path d="M161.861 240.893C168.869 241.434 170.468 226.757 170.468 226.757C170.468 226.757 184.687 226.757 189.387 206.323C189.387 206.323 189.075 215.843 183.089 223.235C183.089 223.235 208.162 220.579 218.728 199.592C218.728 199.592 214.509 210.278 210.566 214.088C210.566 214.088 221.084 211.143 226.192 202.609C226.192 202.609 230.592 214.725 233.969 218.067C233.969 218.067 232.936 174.194 192.284 178.858C192.284 178.858 166.826 180.54 157.69 200.698C148.555 220.855 161.861 240.893 161.861 240.893Z" fill="#263238"/>
<path d="M169.29 242.912C169.29 242.912 159.83 230.195 154.024 233.597C148.219 236.998 155.599 255.641 162.595 258.021C163.471 258.386 164.412 258.57 165.361 258.562C166.31 258.554 167.248 258.355 168.118 257.975C168.988 257.596 169.773 257.044 170.424 256.354C171.076 255.664 171.581 254.849 171.91 253.959L169.29 242.912Z" fill="#774442"/>
<path d="M156.26 238.885C156.234 238.885 156.21 238.896 156.192 238.914C156.174 238.932 156.164 238.956 156.164 238.982C156.164 239.007 156.174 239.032 156.192 239.05C156.21 239.068 156.234 239.078 156.26 239.078C161.176 240.893 163.857 245.328 165.78 249.896C164.289 248.153 162.294 247.215 159.938 249.006C159.818 249.102 159.938 249.295 160.082 249.259C160.928 248.963 161.845 248.937 162.706 249.185C163.568 249.432 164.331 249.941 164.89 250.641C165.823 251.815 166.629 253.084 167.294 254.427C167.535 254.848 168.304 254.596 168.124 254.103V253.995C167.991 247.84 162.931 239.318 156.26 238.885Z" fill="#263238"/>
<path d="M166.441 256.026C166.444 256.217 166.409 256.408 166.338 256.585C166.267 256.763 166.161 256.925 166.027 257.062C165.893 257.198 165.733 257.306 165.556 257.38C165.379 257.454 165.19 257.492 164.998 257.492C164.807 257.492 164.618 257.455 164.442 257.382C164.265 257.309 164.105 257.202 163.97 257.066C163.835 256.931 163.728 256.771 163.655 256.595C163.582 256.418 163.544 256.229 163.544 256.038C163.544 255.847 163.582 255.658 163.655 255.481C163.728 255.305 163.835 255.145 163.97 255.01C164.105 254.875 164.265 254.767 164.442 254.694C164.618 254.621 164.807 254.584 164.998 254.584C165.381 254.584 165.748 254.736 166.018 255.006C166.289 255.277 166.441 255.643 166.441 256.026Z" fill="white"/>
<path d="M162.354 253.55C162.357 253.734 162.304 253.914 162.203 254.069C162.102 254.223 161.958 254.343 161.788 254.415C161.619 254.486 161.432 254.505 161.251 254.47C161.07 254.435 160.904 254.346 160.774 254.216C160.644 254.086 160.556 253.92 160.52 253.739C160.485 253.559 160.504 253.372 160.576 253.202C160.647 253.032 160.768 252.888 160.922 252.787C161.076 252.686 161.257 252.634 161.441 252.636C161.683 252.636 161.915 252.733 162.087 252.904C162.258 253.075 162.354 253.308 162.354 253.55Z" fill="white"/>
<path d="M156.657 224.93C156.164 224.606 111.221 162.727 107.375 157.017C105.656 154.481 119.395 114.947 142.149 104.129C158.568 96.2561 188.414 102.735 193.919 105.163C200.47 108.072 225.519 187.909 225.519 187.909L186.382 204.064L156.657 224.93Z" fill="white"/>
<g opacity="0.1">
<path d="M159.469 213.247C158.606 212.51 157.875 211.632 157.306 210.651C156.645 209.689 155.971 208.727 155.274 207.802C153.852 205.945 152.293 204.197 150.611 202.573C149.375 201.092 147.685 200.06 145.803 199.64C144.972 199.55 144.134 199.714 143.399 200.109C142.908 200.324 142.461 200.626 142.076 200.998C141.812 201.335 141.656 201.876 141.415 202.2C141.343 202.321 141.547 202.429 141.608 202.309C141.784 201.726 142.175 201.232 142.701 200.926C143.128 200.705 143.58 200.535 144.048 200.422C145.053 200.215 146.098 200.391 146.981 200.914C148.616 201.991 150.059 203.336 151.248 204.893C152.582 206.395 153.94 207.898 155.286 209.4C156.633 210.903 157.606 212.61 159.301 213.427C159.445 213.547 159.614 213.343 159.469 213.247Z" fill="black"/>
<path d="M164.109 212.754C161.32 208.851 158.516 204.957 155.695 201.071C152.711 197.254 150.174 193.108 148.134 188.714C148.134 188.582 147.87 188.714 147.93 188.774C149.615 193.336 151.812 197.691 154.481 201.756C157.32 205.738 160.471 209.488 163.905 212.97C163.933 212.997 163.972 213.012 164.011 213.011C164.05 213.01 164.088 212.993 164.115 212.964C164.142 212.936 164.157 212.897 164.156 212.858C164.154 212.818 164.138 212.781 164.109 212.754Z" fill="black"/>
<path d="M175.756 200.734C173.256 197.465 170.431 194.448 167.643 191.431C165.2 188.769 162.42 186.437 159.373 184.495C159.253 184.423 159.145 184.603 159.253 184.687C162.234 186.851 164.446 189.856 166.898 192.572C169.566 195.541 172.259 198.582 175.203 201.263C175.276 201.324 175.369 201.357 175.464 201.354C175.559 201.351 175.649 201.313 175.718 201.248C175.787 201.182 175.829 201.093 175.836 200.998C175.843 200.903 175.815 200.809 175.756 200.734Z" fill="black"/>
<path d="M185.456 163.015C184.889 162.77 184.275 162.654 183.657 162.674C183.04 162.694 182.434 162.851 181.884 163.132C181.334 163.414 180.853 163.813 180.475 164.302C180.098 164.791 179.832 165.357 179.699 165.96C178.966 168.989 180.24 172.439 181.262 175.264C182.389 178.329 183.882 181.247 185.709 183.954C187.79 187.001 190.268 189.758 193.077 192.152C193.173 192.248 193.33 192.152 193.233 192.007C189.327 187.736 186.213 182.803 184.038 177.439C182.938 174.816 182.085 172.095 181.49 169.314C180.997 166.994 181.49 162.919 184.771 163.304C187.885 163.712 189.459 167.306 191.779 169.013C191.779 169.013 191.887 169.013 191.779 168.929C189.483 167.15 188.329 164.205 185.456 163.015Z" fill="black"/>
<path d="M208.415 160.852C206.959 165.439 207.082 170.382 208.763 174.891C209.643 177.405 210.779 179.821 212.153 182.103C213.445 184.54 214.975 186.843 216.72 188.978C216.738 188.996 216.76 189.007 216.784 189.01C216.808 189.013 216.832 189.008 216.853 188.995C216.874 188.983 216.89 188.964 216.899 188.941C216.907 188.918 216.908 188.893 216.901 188.87C215.891 186.466 214.341 184.339 213.295 181.983C212.191 179.622 211.263 177.184 210.518 174.687C209.904 172.47 209.451 170.213 209.16 167.931C208.866 165.623 208.817 163.29 209.016 160.972C209.016 160.659 208.523 160.515 208.415 160.852Z" fill="black"/>
<path d="M202.717 178.737C201.096 174.925 199.204 171.234 197.056 167.691C197.01 167.625 196.941 167.579 196.863 167.56C196.785 167.542 196.703 167.554 196.632 167.593C196.562 167.631 196.509 167.695 196.483 167.771C196.457 167.847 196.459 167.93 196.491 168.004C198.282 171.694 199.844 175.492 201.407 179.278C202.97 183.065 204.256 186.923 206.035 190.553C206.095 190.673 206.251 190.553 206.239 190.469C205.578 186.422 204.395 182.479 202.717 178.737Z" fill="black"/>
</g>
<path d="M224.774 179.098C222.142 178.172 190.156 179.423 179.014 186.31C169.121 192.38 151.764 209.448 147.413 216.552C146.692 217.754 154.625 230.327 157.197 231.409C158.724 232.046 178.509 214.509 189.543 207.297C198.955 201.143 223.199 198.883 229.342 198.546C230.279 198.45 226.337 179.627 224.774 179.098Z" fill="white"/>
<path opacity="0.2" d="M224.774 179.098C222.142 178.172 190.156 179.423 179.014 186.31C169.121 192.38 151.764 209.448 147.413 216.552C146.692 217.754 154.625 230.327 157.197 231.409C158.724 232.046 178.509 214.509 189.543 207.297C198.955 201.143 223.199 198.883 229.342 198.546C230.279 198.45 226.337 179.627 224.774 179.098Z" fill="black"/>
<path d="M200.361 316.715C200.361 316.715 198.703 305.344 197.729 304.382C196.755 303.421 183.053 296.882 176.562 286.581C174.927 283.984 168.508 293.18 168.508 293.18C168.508 293.18 173.316 306.318 184.435 313.349C195.553 320.381 208.86 318.927 211.672 316.955C212.586 316.33 209.449 297.327 209.124 298.18C208.31 300.447 206.995 302.501 205.278 304.19C204.785 304.695 206.756 315.838 206.756 315.838L200.361 316.715Z" fill="white"/>
<path d="M154.144 300.38C130.946 319.516 60.5808 396.66 64.9921 421.902C68.2736 440.641 88.948 446.243 106.762 438.357C122.279 431.494 158.376 348.628 168.256 325.369C177.656 303.18 176.946 281.593 154.144 300.38Z" fill="#774442"/>
<path d="M154.144 300.38C130.946 319.516 60.5808 396.66 64.9921 421.902C68.2736 440.641 88.948 446.243 106.762 438.357C122.279 431.494 158.376 348.628 168.256 325.369C177.656 303.18 176.946 281.593 154.144 300.38Z" fill="white"/>
<path d="M166.285 331.872C166.299 331.839 166.299 331.801 166.286 331.767C166.272 331.733 166.246 331.706 166.213 331.692C166.179 331.678 166.141 331.677 166.107 331.691C166.074 331.704 166.047 331.731 166.032 331.764C163.496 337.642 160.9 343.496 158.195 349.301C155.491 355.107 152.894 360.973 150.178 366.778C144.769 378.35 139.015 389.748 132.917 400.975C131.21 404.124 129.455 407.238 127.713 410.363C125.97 413.488 124.107 416.613 122.424 419.811C122.424 419.907 122.508 419.991 122.568 419.907C124.455 417.31 126.174 414.558 127.857 411.841C129.54 409.125 131.198 406.432 132.809 403.68C136.03 398.187 139.204 392.645 142.197 387.02C145.19 381.395 148.207 375.565 150.959 369.747C153.231 365.035 155.455 360.263 157.486 355.431C157.943 354.782 158.4 354.121 158.844 353.448C159.734 352.09 160.599 350.708 161.465 349.325C163.172 346.621 164.674 343.808 166.273 341.067C166.369 340.899 166.08 340.707 165.972 340.887C164.253 343.58 162.366 346.188 160.768 348.929L158.712 352.366C161.477 345.587 163.965 338.748 166.285 331.872Z" fill="#263238"/>
<path d="M70.5093 432.648C55.2199 416.12 75.3173 398.487 91.0154 397.994C127.905 396.852 181.502 406.757 211.059 417.082C221.192 420.616 223.656 478.733 212.177 478.384C191.815 477.855 101.533 466.172 70.5093 432.648Z" fill="#774442"/>
<path d="M196.551 412.935C196.551 412.935 200.421 413.488 221.348 413.031C235.772 412.719 271.243 421.205 286.881 458.707C292.891 473.131 285.403 483.577 276.52 469.742C270.27 459.993 266.772 452.697 263.839 450.089C263.839 450.089 262.036 467.722 253.105 472.795C245.295 477.239 237.176 481.119 228.813 484.406C227.865 483.011 227.006 481.557 226.24 480.055C222.529 481.744 218.417 482.351 214.376 481.804C210.335 481.257 206.531 479.58 203.402 476.966L196.551 412.935Z" fill="#774442"/>
<path d="M235.195 414.942C241.013 419.75 253.225 430.316 260.137 442.372C267.866 455.774 279.14 483.661 269.188 489.25C261.904 493.361 256.663 483.084 256.663 483.084C256.663 483.084 258.887 495.597 251.494 497.868C244.739 499.936 241.169 491.75 241.169 491.75C241.169 491.75 241.169 499.563 234.33 500.308C226.06 501.198 227.31 484.682 218.151 478.324C216.096 476.918 235.195 414.942 235.195 414.942Z" fill="#774442"/>
<path d="M244.619 448.178C249.343 453.647 256.879 468.828 256.831 482.819C256.831 483.144 256.579 483.312 256.519 483.024C253.936 470.988 249.9 459.311 244.499 448.25C244.451 448.178 244.571 448.118 244.619 448.178Z" fill="#263238"/>
<path d="M231.325 456.375C234.931 461.508 241.987 477.506 241.446 491.69C241.446 492.003 241.181 492.159 241.133 491.858C239.172 479.712 235.837 467.829 231.193 456.435C231.157 456.363 231.277 456.303 231.325 456.375Z" fill="#263238"/>
<path d="M192.572 404.918L181.442 444.584L179.771 482.002C179.771 482.002 61.9751 452.445 64.8478 419.799C65.8335 408.788 76.339 394.124 100.908 393.282C125.477 392.441 192.572 404.918 192.572 404.918Z" fill="white"/>
<path d="M192.897 405.867C190.349 405.146 187.849 404.317 185.276 403.656C182.704 402.995 180.264 402.381 177.74 401.805C172.667 400.603 167.511 399.689 162.378 398.836C152.219 397.137 141.981 395.954 131.703 395.29C127.941 394.088 124.046 393.234 120.224 392.201C120.116 392.201 120.092 392.345 120.224 392.381C123.349 393.27 126.45 394.316 129.588 395.17C127.184 395.025 124.78 394.893 122.448 394.809C119.563 394.689 116.666 394.809 113.781 394.809C113.685 394.809 113.673 394.989 113.781 394.989C116.342 395.121 118.914 395.434 121.462 395.674C124.01 395.915 126.703 396.107 129.311 396.359C134.504 396.864 139.684 397.429 144.841 398.102C155.13 399.461 165.419 401.023 175.588 403.067C178.437 403.644 181.298 404.148 184.146 404.725C186.995 405.302 189.952 405.795 192.825 406.432C193.137 406.444 193.209 405.951 192.897 405.867Z" fill="#263238"/>
<path d="M176.802 481.064C171.886 479.622 167.03 477.999 162.126 476.509C157.222 475.018 152.257 473.456 147.377 471.785C137.557 468.443 127.893 464.705 118.181 461.063C112.555 458.948 106.858 457.048 101.232 454.945C101.088 454.885 100.98 455.101 101.136 455.161C103.54 456.195 106.052 457.301 108.505 458.383C110.957 459.464 113.313 460.426 115.717 461.472C120.525 463.575 125.477 465.535 130.381 467.482C140.032 471.334 149.873 474.692 159.866 477.543C165.443 479.129 171.081 480.319 176.754 481.449C176.982 481.497 177.031 481.124 176.802 481.064Z" fill="#263238"/>
<path d="M198.606 405.074C198.414 404.665 177.259 401.684 177.259 401.684C177.259 401.684 160.431 438.466 160.671 442.757C160.912 447.048 162.342 479.826 162.679 480.211C163.015 480.596 188.57 486.594 189.051 485.812C189.531 485.031 189.219 449.692 189.159 446.976C189.099 444.259 198.606 405.074 198.606 405.074Z" fill="white"/>
<path opacity="0.2" d="M198.486 405.074C198.294 404.665 177.127 401.756 177.127 401.756C177.127 401.756 160.383 438.586 160.671 442.889C160.96 447.192 162.45 479.947 162.787 480.331C163.123 480.716 188.702 486.63 189.231 485.848C189.76 485.067 189.291 449.728 189.231 447.012C189.171 444.295 198.486 405.074 198.486 405.074Z" fill="black"/>
<path d="M538.58 462.686V514.047C538.58 517.653 537.21 520.718 535.539 520.718H515.778H495.993C494.323 520.718 492.976 517.749 492.976 514.083V462.686C492.976 459.02 494.323 456.051 495.993 456.051H497.82V451.243H515.778H533.712V456.051H535.539C537.21 456.051 538.58 459.02 538.58 462.686Z" fill="white"/>
<path d="M534.962 443.346H496.534V451.988H534.962V443.346Z" fill="#37474F"/>
<path d="M538.58 473.576H492.976V506.018H538.58V473.576Z" fill="#EBEBEB"/>
<path d="M487.904 511.667C487.904 518.398 485.38 520.718 484.094 520.718H472.783H462.169C460.883 520.718 458.347 518.411 458.335 511.667C458.335 503.686 464.044 498.902 464.044 494.527C464.044 491.69 461.292 482.855 462.47 482.855H483.685C484.887 482.855 482.146 491.678 482.146 494.527C482.158 498.914 487.892 503.638 487.904 511.667Z" fill="#C7C7C7"/>
<path d="M464.097 476.99L481.97 476.965C482.656 476.964 483.313 477.236 483.799 477.72C484.284 478.204 484.557 478.86 484.558 479.546L484.566 484.799C484.566 484.846 484.547 484.892 484.513 484.926C484.479 484.96 484.433 484.979 484.386 484.979L461.704 485.011C461.656 485.011 461.61 484.992 461.576 484.958C461.542 484.924 461.523 484.879 461.523 484.831L461.516 479.578C461.515 478.893 461.786 478.235 462.27 477.75C462.754 477.264 463.411 476.991 464.097 476.99Z" fill="#37474F"/>
<path d="M134.504 466.821L129.371 462.686C133.29 457.806 137.785 451.567 138.494 449.608C137.725 444.668 133.109 428.357 130.177 426.085H110.945V419.498H130.513C139.853 419.498 145.021 448.911 145.057 449.211C145.238 450.353 145.574 453.058 134.504 466.821Z" fill="#EBEBEB"/>
<path d="M101.112 510.441C67.8529 510.441 59.8116 488.805 63.093 473.66C66.3745 458.515 89.5971 445.497 89.8736 440.545C90.15 435.593 89.8736 413.356 88.6716 411.841C87.4696 410.327 79.8609 407.394 77.8536 407.394C75.8462 407.394 75.7861 404.846 77.8536 404.846H116.197C118.265 404.846 118.265 407.394 116.197 407.394C114.13 407.394 112.832 409.93 112.471 412.61C112.207 414.498 111.834 436.422 112.387 440.545C113.048 445.449 135.862 458.491 139.168 473.66C142.473 488.829 134.36 510.441 101.112 510.441Z" fill="#EBEBEB"/>
<path d="M100.295 505.321C72.3244 505.321 65.5691 487.146 68.3217 474.405C71.0743 461.664 94.5974 447.396 94.1407 443.261C94.0565 442.456 93.9964 426.229 93.9604 424.534H107.892C107.892 426.301 107.988 442.564 108.084 443.261C108.649 447.384 129.467 461.64 132.256 474.405C135.045 487.171 128.253 505.321 100.295 505.321Z" fill="white"/>
<path d="M229.077 508.903C229.027 510.762 228.591 512.591 227.796 514.274C227.001 515.956 225.866 517.455 224.461 518.675C218.451 524.384 207.97 527.57 196.972 527.017C189.519 526.632 179.891 523.411 170.6 520.238C161.308 517.064 152.245 514.047 146.127 514.107L73.7427 514.78V510.345H75.4375V513.086L146.127 512.425C152.534 512.364 161.573 515.418 171.153 518.651C180.348 521.752 189.844 524.961 197.068 525.334C207.621 525.875 217.67 522.858 223.296 517.461C224.534 516.401 225.538 515.095 226.244 513.626C226.95 512.156 227.342 510.556 227.394 508.927L229.077 508.903Z" fill="#A6A6A6"/>
<path d="M228.38 504.984C228.858 506.236 229.11 507.563 229.125 508.903H227.43C227.339 507.283 226.914 505.699 226.181 504.251C225.449 502.804 224.426 501.523 223.175 500.489C217.454 495.212 207.345 492.375 196.803 493.12C189.591 493.613 180.144 497.003 171.009 500.332C161.501 503.746 152.522 506.967 146.103 507.016L75.4255 507.677V510.417H73.7067V505.994L146.079 505.321C152.197 505.321 161.056 502.087 170.432 498.722C179.807 495.356 189.231 491.979 196.671 491.51C207.67 490.74 218.307 493.745 224.317 499.335C226.087 500.881 227.477 502.814 228.38 504.984Z" fill="#A6A6A6"/>
<path d="M229.077 508.903C229.051 509.82 228.834 510.722 228.438 511.55C228.043 512.378 227.478 513.114 226.781 513.711C221.853 518.519 209.845 521.536 196.924 521.151C189.519 520.923 179.927 518.843 170.66 516.824C161.393 514.805 152.281 512.821 146.115 512.881L73.7307 513.554V510.369H75.4255V511.86L146.115 511.199C152.474 511.138 161.489 513.098 171.033 515.177C180.228 517.184 189.736 519.252 196.996 519.468C209.292 519.841 221.036 516.98 225.615 512.509C226.144 512.063 226.575 511.512 226.881 510.891C227.187 510.271 227.362 509.594 227.394 508.903H229.077Z" fill="#A6A6A6"/>
<path d="M228.729 507.04C228.957 507.634 229.075 508.266 229.077 508.903V509.744L73.7067 511.199V507.16L146.091 506.487C152.257 506.427 161.14 504.323 170.552 502.099C179.783 499.9 189.339 497.64 196.743 497.291C209.653 496.666 221.709 499.419 226.733 504.167C227.604 504.963 228.286 505.945 228.729 507.04ZM227.274 508.073C226.955 507.031 226.351 506.099 225.531 505.381C220.892 501.006 209.076 498.373 196.791 498.974C189.579 499.323 180.072 501.57 170.9 503.782C161.405 506.03 152.438 508.157 146.067 508.218L75.3895 508.879V509.516L227.274 508.073Z" fill="#A6A6A6"/>
<path d="M70.4733 517.653L127.616 517.124L127.472 502.568L70.0045 503.109L70.4733 517.653Z" fill="#37474F"/>
</svg>
